<mxfile host="app.diagrams.net" modified="2023-07-01T07:40:29.161Z" agent="Mozilla/5.0 (Macintosh; Intel Mac OS X 10_15_7) AppleWebKit/605.1.15 (KHTML, like Gecko) Version/16.3 Safari/605.1.15" etag="WZNB_cUM3ND9jIziqBS5" version="21.5.2" type="github">
  <diagram name="Страница 1" id="7e1l28-0NPVZuaMQsIqd">
    <mxGraphModel dx="1194" dy="802" grid="1" gridSize="10" guides="1" tooltips="1" connect="1" arrows="1" fold="1" page="1" pageScale="1" pageWidth="827" pageHeight="1169" math="0" shadow="0">
      <root>
        <mxCell id="0" />
        <mxCell id="1" parent="0" />
        <mxCell id="1wOpU7AtOYSi3dkDBQXt-11" value="&lt;br&gt;&lt;br&gt;&lt;br&gt;&lt;br&gt;&lt;br&gt;&lt;br&gt;&lt;br&gt;&lt;br&gt;&lt;br&gt;&lt;br&gt;&lt;br&gt;&lt;br&gt;&lt;br&gt;ebs" style="whiteSpace=wrap;html=1;aspect=fixed;" vertex="1" parent="1">
          <mxGeometry x="30" y="260" width="250" height="250" as="geometry" />
        </mxCell>
        <mxCell id="1wOpU7AtOYSi3dkDBQXt-2" value="task" style="rounded=1;whiteSpace=wrap;html=1;" vertex="1" parent="1">
          <mxGeometry x="70" y="280" width="100" height="30" as="geometry" />
        </mxCell>
        <mxCell id="1wOpU7AtOYSi3dkDBQXt-3" value="order" style="rounded=1;whiteSpace=wrap;html=1;" vertex="1" parent="1">
          <mxGeometry x="70" y="340" width="100" height="30" as="geometry" />
        </mxCell>
        <mxCell id="1wOpU7AtOYSi3dkDBQXt-8" style="edgeStyle=orthogonalEdgeStyle;rounded=0;orthogonalLoop=1;jettySize=auto;html=1;exitX=1;exitY=0.5;exitDx=0;exitDy=0;entryX=0;entryY=0.75;entryDx=0;entryDy=0;" edge="1" parent="1" source="1wOpU7AtOYSi3dkDBQXt-4" target="1wOpU7AtOYSi3dkDBQXt-5">
          <mxGeometry relative="1" as="geometry" />
        </mxCell>
        <mxCell id="1wOpU7AtOYSi3dkDBQXt-4" value="products" style="rounded=1;whiteSpace=wrap;html=1;" vertex="1" parent="1">
          <mxGeometry x="280" y="190" width="90" height="30" as="geometry" />
        </mxCell>
        <mxCell id="1wOpU7AtOYSi3dkDBQXt-5" value="marketplace" style="rounded=1;whiteSpace=wrap;html=1;" vertex="1" parent="1">
          <mxGeometry x="460" y="210" width="100" height="30" as="geometry" />
        </mxCell>
        <mxCell id="1wOpU7AtOYSi3dkDBQXt-10" value="message" style="rounded=1;whiteSpace=wrap;html=1;" vertex="1" parent="1">
          <mxGeometry x="70" y="390" width="100" height="30" as="geometry" />
        </mxCell>
      </root>
    </mxGraphModel>
  </diagram>
</mxfile>
